<?xml version="1.0" encoding="utf-8"?>
<!-- Generator: Adobe Illustrator 27.2.0, SVG Export Plug-In . SVG Version: 6.00 Build 0)  -->
<svg version="1.1" id="Layer_1" xmlns="http://www.w3.org/2000/svg" xmlns:xlink="http://www.w3.org/1999/xlink" x="0px" y="0px"
	 viewBox="0 0 600 600" style="enable-background:new 0 0 600 600;" xml:space="preserve">
<style type="text/css">
	.st0{fill:#ED228B;}
</style>
<g>
	<g>
		<path d="M337.94,201.2h85.47v-18.96h-50.25v-8.1l31.47-32.69c13.28-12.91,19.2-24.61,19.2-37.89c0-20.84-16.82-34.32-42.84-34.32
			c-26.02,0-43.24,14.28-43.24,36.38v2.45h21.5v-0.17c0-11.72,8.94-19.91,21.74-19.91c12.8,0,21.15,7.59,21.15,18.45
			c0,8.43-5.41,17.16-19.3,31.17l-44.88,45.63v17.95L337.94,201.2z M432.6,210.38H328.76v-30.89l47.54-48.32
			c11.67-11.78,16.64-19.16,16.64-24.72c0-5.55-4.59-9.27-11.96-9.27c-7.86,0-12.56,4.01-12.56,10.72v9.36h-39.86v-11.63
			c0-27.26,21.07-45.57,52.43-45.57c31.36,0,52.03,17.48,52.03,43.5c0,15.95-6.76,29.66-21.93,44.42l-24.13,25.07h45.65v37.33H432.6
			z"/>
		<path d="M504.95,97.38c-9.99,0-16.19,5.86-16.19,15.27v47.6c0,9.42,6.2,15.28,16.19,15.28c9.99,0,16-5.86,16-15.28v-47.6
			C520.95,103.24,514.82,97.38,504.95,97.38 M504.95,184.71c-15.18,0-25.38-9.83-25.38-24.46v-47.6c0-14.63,10.2-24.46,25.38-24.46
			c15.18,0,25.18,10.05,25.18,24.46v47.6C530.13,174.65,519.78,184.71,504.95,184.71 M504.95,69.24c-27.98,0-46.07,16.8-46.07,42.8
			v48.83c0,26,18.09,42.8,46.07,42.8c27.98,0,45.86-16.8,45.86-42.8v-48.83C550.82,86.04,532.81,69.24,504.95,69.24 M504.95,212.86
			c-33.05,0-55.25-20.89-55.25-51.99v-48.83c0-31.09,22.21-51.98,55.25-51.98C538,60.06,560,80.95,560,112.04v48.83
			C560,191.96,537.88,212.86,504.95,212.86"/>
		<path d="M337.94,369.96h85.47V351h-50.25v-8.1l31.47-32.69c13.28-12.91,19.2-24.61,19.2-37.89c0-20.84-16.82-34.32-42.84-34.32
			c-26.02,0-43.24,14.28-43.24,36.38v2.45h21.5v-0.17c0-11.72,8.94-19.91,21.74-19.91c12.8,0,21.15,7.59,21.15,18.45
			c0,8.43-5.41,17.16-19.3,31.17l-44.88,45.63v17.95L337.94,369.96z M432.6,379.14H328.76v-30.89l47.54-48.32
			c11.67-11.78,16.64-19.16,16.64-24.72s-4.59-9.27-11.96-9.27c-7.86,0-12.56,4.01-12.56,10.72v9.36h-39.86v-11.63
			c0-27.26,21.07-45.57,52.43-45.57c31.36,0,52.03,17.48,52.03,43.5c0,15.95-6.76,29.66-21.93,44.42l-24.13,25.07h45.65v37.33H432.6
			z"/>
		<path d="M454.43,336.1v0.99c0,21.48,17.77,35.34,45.26,35.34c27.49,0,45.46-13.88,45.46-35.34c0-13.71-7.55-24.99-19.21-28.74
			l-3.19-1.03v-8.28l3.11-1.06c10.37-3.55,17.07-13.87,17.07-26.28c0-20.16-17.29-33.69-43.04-33.69
			c-25.74,0-43.24,13.71-43.24,34.94v0.38h21.74c0.73-10.56,9.28-17.8,21.29-17.8c12.01,0,21.15,8.44,21.15,20.52
			s-8.82,20.94-21.95,20.94h-15.4v15.03h17.82c13.14,0,21.95,8.58,21.95,21.35c0,12.77-9.77,21.56-23.76,21.56
			c-13.26,0-22.66-7.68-23.32-18.83H454.43z M499.71,381.62c-32.57,0-54.45-17.89-54.45-44.53v-10.18h40.06v7.9
			c0,8.06,7.33,10.93,14.17,10.93c8.99,0,14.58-4.75,14.58-12.38c0-7.63-4.77-12.17-12.77-12.17h-26.99v-33.4h24.57
			c8,0,12.77-4.39,12.77-11.75c0-7.36-4.48-11.35-11.96-11.35c-7.48,0-12.16,3.78-12.16,10.1v7.69h-40.06v-9.56
			c0-26.39,21.07-44.11,52.43-44.11s52.22,17.23,52.22,42.88c0,13.32-6.02,24.86-15.85,31.33c11.19,6.74,18.06,19.36,18.06,34.07
			c0,26.64-21.97,44.53-54.64,44.53"/>
		<path d="M40,466.05v-19.69c0-14.05,10.04-23.32,25.43-23.32c15.39,0,25.33,9.27,25.33,23.32v2.48H76.6v-2.2
			c0-6.41-4.49-10.6-11.18-10.6c-6.69,0-11.28,4.21-11.28,10.6v19.12c0,6.41,4.49,10.6,11.28,10.6c6.79,0,11.18-4.21,11.18-10.6
			v-2.2h14.15v2.48c0,14.05-10.13,23.32-25.33,23.32c-15.2,0-25.43-9.27-25.43-23.32"/>
		<path d="M136.43,465.29v-18.16c0-6.69-4.68-11.08-11.66-11.08s-11.75,4.39-11.75,11.08v18.16c0,6.69,4.68,11.08,11.75,11.08
			C131.85,476.37,136.43,471.98,136.43,465.29 M98.87,465.57v-18.74c0-14.33,10.22-23.8,25.9-23.8c15.68,0,25.81,9.47,25.81,23.8
			v18.74c0,14.33-10.32,23.8-25.81,23.8C109.29,489.37,98.87,479.9,98.87,465.57"/>
	</g>
	<polygon points="161.09,424.2 177.62,424.2 197.51,464.71 198.56,464.71 197.89,460.22 197.89,424.2 212.02,424.2 212.02,488.22 
		195.49,488.22 175.71,447.7 174.56,447.7 175.24,452.19 175.24,488.22 161.09,488.22 	"/>
	<g>
		<path d="M221.11,469.97v-1.15h14.91v1.33c0,4.68,4.21,7.74,9.84,7.74c5.26,0,9.55-2.58,9.55-6.59c0-11.66-33.74-6.21-33.74-29.34
			c0-11.95,9.75-18.92,23.8-18.92c14.05,0,23.7,7.36,23.7,18.26v1.15h-14.71v-1.05c0-4.11-3.83-6.88-9.17-6.88
			c-4.78,0-8.6,2.3-8.6,6.11c0,11.57,33.64,5.44,33.64,29.06c0,12.13-9.65,19.69-24.37,19.69c-14.72,0-24.85-7.84-24.85-19.4"/>
	</g>
	<polygon points="293.56,437.1 293.56,449.51 317.07,449.51 317.07,462.33 293.56,462.33 293.56,475.32 320.8,475.32 320.8,488.22 
		279.41,488.22 279.41,424.2 320.8,424.2 320.8,437.1 	"/>
	<polygon points="331.22,424.2 347.75,424.2 367.62,464.71 368.68,464.71 368.02,460.22 368.02,424.2 382.15,424.2 382.15,488.22 
		365.62,488.22 345.84,447.7 344.69,447.7 345.35,452.19 345.35,488.22 331.22,488.22 	"/>
	<g>
		<path d="M391.24,469.97v-1.15h14.91v1.33c0,4.68,4.21,7.74,9.84,7.74c5.26,0,9.55-2.58,9.55-6.59c0-11.66-33.74-6.21-33.74-29.34
			c0-11.95,9.75-18.92,23.8-18.92c14.05,0,23.7,7.36,23.7,18.26v1.15h-14.72v-1.05c0-4.11-3.82-6.88-9.17-6.88
			c-4.78,0-8.6,2.3-8.6,6.11c0,11.57,33.64,5.44,33.64,29.06c0,12.13-9.65,19.69-24.37,19.69c-14.72,0-24.85-7.84-24.85-19.4"/>
		<path d="M448.68,466.52v-42.34h14.15v42.05c0,6.11,4.21,10.13,10.8,10.13c6.59,0,10.7-4.01,10.7-10.13v-42.05h14.05v42.34
			c0,13.76-9.85,22.85-24.75,22.85C458.72,489.37,448.68,480.29,448.68,466.52"/>
		<path d="M506.59,469.97v-1.15h14.91v1.33c0,4.68,4.21,7.74,9.84,7.74c5.26,0,9.55-2.58,9.55-6.59c0-11.66-33.74-6.21-33.74-29.34
			c0-11.95,9.75-18.92,23.8-18.92c14.05,0,23.7,7.36,23.7,18.26v1.15h-14.71v-1.05c0-4.11-3.83-6.88-9.17-6.88
			c-4.78,0-8.6,2.3-8.6,6.11c0,11.57,33.64,5.44,33.64,29.06c0,12.13-9.65,19.69-24.37,19.69c-14.72,0-24.85-7.84-24.85-19.4"/>
		<path class="st0" d="M304.78,265.76H183.65v110.51h2.53c59.74,0,110.37-44.65,117.77-103.88l0.83-6.64L304.78,265.76z
			 M169.37,228.73H44.78v28.85c0,65.44,53.24,118.69,118.69,118.69h5.91V228.73H169.37z M169.37,66.96h-5.91
			c-65.44,0-118.69,53.24-118.69,118.69v28.85h124.59V66.96H169.37z M186.19,66.96h-2.53V175.8h120.98l-0.94-6.71
			c-3.91-28.09-17.88-53.91-39.31-72.71c-21.64-18.97-49.41-29.41-78.21-29.41 M288.69,279.61c-9.43,44.11-46.42,77.33-91.17,82.17
			v-82.17H288.69z M155.51,242.6V362.1c-54.09-4.08-96.86-49.4-96.86-104.53v-14.99h96.86 M197.52,81.43
			c21.32,2.31,41.5,11.12,57.74,25.37c16.6,14.55,28.12,33.88,33.03,55.13h-90.77V81.44 M155.51,81.12v119.51H58.65v-14.99
			c0-55.12,42.77-100.44,96.86-104.53"/>
	</g>
	<g>
		<path d="M356.58,528.33c0-2.6-1.04-4.4-3.12-4.4c-2.35,0-3.23,1.89-3.23,4.49c0,2.6,1.28,4.21,3.36,4.21
			C355.51,532.63,356.58,531.05,356.58,528.33 M350.23,533.58h-0.06v1.75h-3.59v-19.56h3.72V523h0.08c0.76-1.18,1.97-2.08,3.91-2.08
			c3.53,0,6.05,3.04,6.05,7.42c0,4.38-2.41,7.42-5.94,7.42C352.44,535.75,351.04,534.9,350.23,533.58"/>
		<path d="M362.54,537h1.31c1.48,0,2.08-0.76,2.08-1.91c0-0.76-0.27-1.67-1.07-3.8l-3.77-9.99H365l2.08,6.32
			c0.44,1.28,0.9,3.07,0.9,3.07h0.06c0,0,0.38-1.78,0.82-3.07l1.97-6.32h3.75l-4.9,14.39c-1.07,3.12-2.11,4.24-4.95,4.24h-2.19
			L362.54,537L362.54,537z"/>
		<path d="M538.9,535.37h6.51v-6.24l1.98-2.07l4.97,8.31H560l-8.13-12.73l7.27-7.63h-7.6l-6.14,6.88v-14.95h-6.51V535.37z
			 M527.34,536.01c5.41,0,9.42-2.31,9.42-6.76c0-5.21-4.28-6.12-7.92-6.72c-2.63-0.48-4.97-0.67-4.97-2.11
			c0-1.27,1.25-1.87,2.87-1.87c1.82,0,3.07,0.56,3.31,2.39h6.06c-0.32-4.01-3.48-6.52-9.33-6.52c-4.89,0-8.93,2.23-8.93,6.52
			c0,4.77,3.84,5.73,7.44,6.32c2.75,0.47,5.25,0.67,5.25,2.51c0,1.31-1.25,2.03-3.23,2.03c-2.18,0-3.56-0.99-3.8-3.02h-6.22
			C517.48,533.27,521.28,536.01,527.34,536.01 M500.9,523.01c0.45-2.43,1.74-3.97,4.24-3.97c2.14,0,3.68,1.55,3.92,3.97H500.9z
			 M506.02,535.97c2.63,0,4.73-0.67,6.46-1.87c1.82-1.23,3.03-2.98,3.48-4.81h-6.42c-0.57,1.27-1.7,2.03-3.44,2.03
			c-2.71,0-4.24-1.71-4.65-4.45h14.87c0.04-4.13-1.17-7.67-3.64-9.9c-1.77-1.59-4.12-2.55-7.07-2.55c-6.3,0-10.62,4.65-10.62,10.73
			C494.99,531.23,499.19,535.97,506.02,535.97 M467.83,535.37h11.88c3.64,0,6.55-0.91,8.81-2.59c3.23-2.43,5.01-6.44,5.01-11.45
			c0-8.71-5.37-14.39-13.38-14.39h-12.33V535.37L467.83,535.37z M474.38,529.45v-16.62h4.28c4.49,0,7.03,3.34,7.03,8.51
			c0,5.17-2.43,8.11-7.11,8.11H474.38z M420.83,536.01c6.67,0,11.03-4.65,11.03-10.77s-4.36-10.77-11.03-10.77
			c-6.67,0-11.07,4.65-11.07,10.77S414.21,536.01,420.83,536.01 M420.79,531.39c-2.87,0-4.36-2.47-4.36-6.16
			c0-3.69,1.5-6.2,4.36-6.2c2.87,0,4.41,2.51,4.41,6.2C425.2,528.93,423.66,531.39,420.79,531.39 M395.42,536
			c4.08,0,7.03-1.11,9.26-3.22c1.98-1.87,3.27-4.45,3.48-7.27h-7.15c-0.32,2.75-2.43,4.73-5.62,4.73c-4.28,0-6.95-3.78-6.95-8.99
			c0-5.21,2.22-9.03,6.91-9.03c3.07,0,5.09,1.95,5.45,4.49h7.15c-0.37-3.18-1.82-5.97-4.32-7.83c-2.06-1.55-4.89-2.51-8.24-2.51
			c-8.61,0-14.22,6.4-14.22,14.87C381.15,529.73,386.93,536.01,395.42,536"/>
		<path d="M451.56,535.37h-6.59v-20.36h6.34v2.79h0.12c1.54-2.19,3.52-3.38,6.38-3.38c4.53,0,7.19,3.18,7.19,7.71v13.24h-6.59
			v-11.93c0-2.15-1.09-3.62-3.23-3.62c-2.14,0-3.64,1.79-3.64,4.29L451.56,535.37L451.56,535.37z"/>
	</g>
	<polygon points="432.38,519.56 432.39,515.02 441.92,515.02 441.92,535.37 435.66,535.37 435.66,519.56 	"/>
	<g>
		<path d="M438.33,506.2c1.99,0,3.6,1.59,3.6,3.54c0,1.95-1.61,3.54-3.6,3.54c-1.99,0-3.6-1.59-3.6-3.54
			C434.73,507.79,436.34,506.2,438.33,506.2"/>
	</g>
</g>
</svg>
